<?xml version="1.0" encoding="utf-8"?>
<!-- Generator: Adobe Illustrator 17.1.0, SVG Export Plug-In . SVG Version: 6.00 Build 0)  -->
<!DOCTYPE svg PUBLIC "-//W3C//DTD SVG 1.1//EN" "http://www.w3.org/Graphics/SVG/1.1/DTD/svg11.dtd">
<svg version="1.1" id="Layer_1" xmlns="http://www.w3.org/2000/svg" xmlns:xlink="http://www.w3.org/1999/xlink" x="0px" y="0px"
	 viewBox="0 0 127 127" enable-background="new 0 0 127 127" xml:space="preserve">
<path fill="#F9F9FA" d="M73.9,37.2H50.2c-1.6,0-3-1.3-3-3V10.5c0-1.6,1.3-3,3-3h23.7c1.6,0,3,1.3,3,3v23.7
	C76.8,35.8,75.5,37.2,73.9,37.2z M53.2,31.3h17.8V13.5H53.2V31.3z"/>
<path fill="#F9F9FA" d="M11.7,19.4h35.5v5.9H11.7V19.4z"/>
<path fill="#F9F9FA" d="M76.8,19.4h35.5v5.9H76.8V19.4z"/>
<path fill="#F9F9FA" d="M115.4,31.3c-4.9,0-8.9-4-8.9-8.9s4-8.9,8.9-8.9c4.9,0,8.9,4,8.9,8.9S120.3,31.3,115.4,31.3z M115.4,19.4
	c-1.6,0-3,1.3-3,3c0,1.6,1.3,3,3,3c1.6,0,3-1.3,3-3C118.4,20.7,117.1,19.4,115.4,19.4z"/>
<path fill="#F9F9FA" d="M8.9,31.3c-4.9,0-8.9-4-8.9-8.9s4-8.9,8.9-8.9c4.9,0,8.9,4,8.9,8.9S13.8,31.3,8.9,31.3z M8.9,19.4
	c-1.6,0-3,1.3-3,3c0,1.6,1.3,3,3,3c1.6,0,3-1.3,3-3C11.8,20.7,10.5,19.4,8.9,19.4z"/>
<path fill="#F9F9FA" d="M120.3,76.8c-1.6,0-3-1.3-3-3c0-24-17.1-44.5-40.7-48.6c-1.6-0.3-2.7-1.8-2.4-3.4c0.3-1.6,1.8-2.7,3.4-2.4
	c26.5,4.6,45.6,27.5,45.6,54.4C123.2,75.4,121.9,76.8,120.3,76.8z"/>
<path fill="#F9F9FA" d="M3.8,76.8c-1.6,0-3-1.3-3-3c0-26.9,19.2-49.8,45.7-54.4c1.6-0.3,3.1,0.8,3.4,2.4c0.3,1.6-0.8,3.1-2.4,3.4
	C23.9,29.3,6.8,49.8,6.8,73.8C6.8,75.4,5.4,76.8,3.8,76.8z"/>
<path fill="#F9F9FA" d="M81.3,116c-0.2,0-0.5,0-0.7-0.1c-1.6-0.4-2.5-2-2.1-3.6l7.1-28L62,48.5L38.6,84.3l7.1,28
	c0.4,1.6-0.6,3.2-2.1,3.6c-1.6,0.4-3.2-0.6-3.6-2.1l-7.4-29.2c-0.2-0.8-0.1-1.7,0.4-2.3l26.6-40.7c1.1-1.7,3.9-1.7,4.9,0l26.6,40.7
	c0.5,0.7,0.6,1.6,0.4,2.3l-7.4,29.2C83.8,115.1,82.6,116,81.3,116z"/>
<path fill="#F9F9FA" d="M62,99.3c-1.6,0-3-1.3-3-3V49c0-1.6,1.3-3,3-3c1.6,0,3,1.3,3,3v47.4C65,98,63.7,99.3,62,99.3z"/>
<path fill="#F9F9FA" d="M62,110.8c-4.9,0-8.9-4-8.9-8.9c0-4.9,4-8.9,8.9-8.9c4.9,0,8.9,4,8.9,8.9C70.9,106.8,66.9,110.8,62,110.8z
	 M62,99c-1.6,0-3,1.3-3,3c0,1.6,1.3,3,3,3c1.6,0,3-1.3,3-3C65,100.3,63.7,99,62,99z"/>
<path fill="#F9F9FA" d="M88.7,120.1H35.4c-1.6,0-3-1.3-3-3c0-1.6,1.3-3,3-3h53.3c1.6,0,3,1.3,3,3C91.6,118.7,90.3,120.1,88.7,120.1z
	"/>
</svg>
