<?xml version="1.0" encoding="utf-8"?>
<!-- Generator: Adobe Illustrator 17.1.0, SVG Export Plug-In . SVG Version: 6.00 Build 0)  -->
<!DOCTYPE svg PUBLIC "-//W3C//DTD SVG 1.1//EN" "http://www.w3.org/Graphics/SVG/1.1/DTD/svg11.dtd">
<svg version="1.1" id="Layer_1" xmlns="http://www.w3.org/2000/svg" xmlns:xlink="http://www.w3.org/1999/xlink" x="0px" y="0px"
	 viewBox="0 0 127 127" enable-background="new 0 0 127 127" xml:space="preserve">
<path fill="#FDFEFF" d="M63.1,19.5L0,52.8L63.1,86l36.6-18.5c0,0,0,16.8,0,25.1c0,13.3,13.3,13.3,13.3,13.3v-6.6
	c0,0-6.6-0.4-6.6-6.6c0-10,0-28.9,0-28.9l19.9-11L63.1,19.5z"/>
<path fill="#FDFEFF" d="M33.2,79.3v13.3c0,3.3,2.2,7.7,6.6,10l23.3,10l19.9-10c4.5-2.2,10.3-6.7,10-10V79.3L63.1,93.9L33.2,79.3z"/>
</svg>
