<?xml version="1.0" encoding="utf-8"?>
<!-- Generator: Adobe Illustrator 17.1.0, SVG Export Plug-In . SVG Version: 6.00 Build 0)  -->
<!DOCTYPE svg PUBLIC "-//W3C//DTD SVG 1.1//EN" "http://www.w3.org/Graphics/SVG/1.1/DTD/svg11.dtd">
<svg version="1.1" id="Layer_1" xmlns="http://www.w3.org/2000/svg" xmlns:xlink="http://www.w3.org/1999/xlink" x="0px" y="0px"
	 viewBox="0 0 127 127" enable-background="new 0 0 127 127" xml:space="preserve">
<g>
	<path fill="#FDFEFF" d="M121.7,49c-4.5-1.1-9.7-2.5-14.4-4.4l-6.2,2.8v-1.2c0-1.9-1.5-3.4-3.4-3.4c-1.9,0-3.4,1.5-3.4,3.4v1.2
		L88,44.6c-4.7,1.9-9.9,3.3-14.4,4.4c-1.8,0.5-2.1,1-2.1,1.4c0,0.7,2.2,0.7,2.2,0.7h20.5v7h-0.5H73H54.6H33.8h-0.5v-7h20.5
		c0,0,2.2,0,2.2-0.7c0-0.4-0.3-1-2.1-1.4c-4.5-1.1-9.7-2.5-14.4-4.4l-6.2,2.8v-1.2c0-1.9-1.5-3.4-3.4-3.4s-3.4,1.5-3.4,3.4v1.2
		l-6.2-2.8c-4.7,1.9-9.9,3.3-14.4,4.4c-1.8,0.4-2.1,1-2.1,1.4c0,0.7,2.2,0.7,2.2,0.7h20.5v7.7c0,1.7,1.3,3.1,2.9,3.4
		c0.1,0,0.3,0,0.4,0h0c0,0,0.1,0,0.1,0c0,0,0.1,0,0.1,0h3.8h17.4v4.2C41.1,71.2,34,81.6,34,93.5c0,1.1,0.9,2.1,2.1,2.1
		c1.1,0,2.1-0.9,2.1-2.1c0-9.8,5.6-18.4,13.7-22.7c0.6,0.9,1.6,1.5,2.8,1.5H73c1.2,0,2.2-0.6,2.8-1.5c8.1,4.3,13.7,12.9,13.7,22.7
		c0,1.1,0.9,2.1,2.1,2.1c1.1,0,2.1-0.9,2.1-2.1c0-12-7.1-22.3-17.3-27v-4.2h17.4h3.8c0,0,0.1,0,0.1,0s0.1,0,0.1,0h0
		c0.1,0,0.3,0,0.4,0c1.6-0.3,2.9-1.7,2.9-3.4v-7.7h20.5c0,0,2.2,0,2.2-0.7C123.8,50,123.5,49.5,121.7,49z"/>
	<path fill="#FDFEFF" d="M73,79.2h-1.6V77c0-0.8-0.6-1.4-1.4-1.4h-4c-0.8,0-1.4,0.6-1.4,1.4v2.2H54.6c-1.8,0-3.3,1.5-3.3,3.3v9.8
		c0,1.8,1.5,3.3,3.3,3.3H73c1.8,0,3.3-1.5,3.3-3.3v-9.8C76.3,80.7,74.8,79.2,73,79.2z M68,92.1c-2.6,0-4.7-2.1-4.7-4.7
		c0-2.6,2.1-4.7,4.7-4.7c2.6,0,4.7,2.1,4.7,4.7C72.7,90,70.6,92.1,68,92.1z"/>
</g>
</svg>
