<?xml version="1.0" encoding="utf-8"?>
<!-- Generator: Adobe Illustrator 17.1.0, SVG Export Plug-In . SVG Version: 6.00 Build 0)  -->
<!DOCTYPE svg PUBLIC "-//W3C//DTD SVG 1.1//EN" "http://www.w3.org/Graphics/SVG/1.1/DTD/svg11.dtd">
<svg version="1.1" id="Layer_1" xmlns="http://www.w3.org/2000/svg" xmlns:xlink="http://www.w3.org/1999/xlink" x="0px" y="0px"
	 viewBox="0 0 127 127" enable-background="new 0 0 127 127" xml:space="preserve">
<g>
	<path fill="#F9F9FA" d="M101.2,89.5H66.8v7h-6.2v-7H26.1v7H20V86.4c0-1.7,1.4-3.1,3.1-3.1h37.5h6.2h37.5c1.7,0,3.1,1.4,3.1,3.1
		v10.1h-6.2V89.5z M31.5,76.5h32.2l0,0h32.2c-0.2-13.4,0.4-20.4-8.3-23.7c-7.8-3.1-12.6-6-12.6-6l-6,19.2l-0.8,2.7l-2.9-7.8
		c6.2-8.7-0.4-9.1-1.7-9.1l0,0l0,0l0,0l0,0l0,0l0,0c-1.2,0-7.8,0.4-1.7,9.1l-2.7,7.6l-0.8-2.7l-6-19.2c0,0-4.7,3.1-12.6,6
		C31.1,55.9,31.7,63.1,31.5,76.5z M68.6,29.3c2.7-2.7,2.7-7,0-9.7c-2.7-2.7-7-2.7-9.7,0s-2.7,7,0,9.7S66,31.9,68.6,29.3z M42,20.8
		h3.5c0.4-2.3,1.4-4.7,2.7-6.8l-2.5-2.5c-0.6-0.6-0.6-1.7,0-2.3l2.9-2.9c0.6-0.6,1.7-0.6,2.3,0l2.5,2.5c2.1-1.4,4.3-2.3,6.8-2.9V2.4
		c0-0.8,0.6-1.4,1.4-1.4h4.1c0.8,0,1.4,0.6,1.4,1.4V6c2.3,0.4,4.7,1.4,6.8,2.7l2.5-2.5c0.6-0.6,1.7-0.6,2.3,0L81.6,9
		c0.6,0.6,0.6,1.7,0,2.3l-2.5,2.5c1.4,2.1,2.3,4.3,2.9,6.8h3.5c0.8,0,1.4,0.6,1.4,1.4v4.1c0,0.8-0.6,1.4-1.4,1.4h-3.5
		c-0.4,2.3-1.4,4.7-2.7,6.8l2.5,2.5c0.6,0.6,0.6,1.7,0,2.3l-3.1,3.1c-0.6,0.6-1.7,0.6-2.3,0L74,39.8c-2.1,1.4-4.3,2.3-6.8,2.9v3.5
		c0,0.8-0.6,1.4-1.4,1.4h-4.1c-0.8,0-1.4-0.6-1.4-1.4v-3.5c-2.5-0.4-4.7-1.4-6.8-2.7l-2.5,2.5c-0.6,0.6-1.7,0.6-2.3,0l-2.9-2.9
		c-0.6-0.6-0.6-1.7,0-2.3l2.5-2.5c-1.4-2.1-2.3-4.3-2.9-6.8h-3.5c-0.8,0-1.4-0.6-1.4-1.4v-4.1C40.4,21.4,41.2,20.8,42,20.8z
		 M56.1,32.2c4.3,4.1,11.1,4.1,15.3,0c4.1-4.3,4.1-11.1,0-15.3c-4.3-4.1-11.1-4.1-15.3,0C51.9,21,51.9,27.8,56.1,32.2z M60.6,102.1
		L60.6,102.1h-9.9c-2.3,0-3.9,1.9-3.9,3.9v14.6c0,2.3,1.9,3.9,3.9,3.9h26.2c2.3,0,3.9-1.9,3.9-3.9V106c0-2.3-1.9-3.9-3.9-3.9H67l0,0
		H60.6z M91.1,124.6h26.2c2.3,0,3.9-1.9,3.9-3.9V106c0-2.3-1.9-3.9-3.9-3.9h-9.9l0,0h-6.2l0,0h-9.9c-2.3,0-3.9,1.9-3.9,3.9v14.6
		C87.2,122.9,89.1,124.6,91.1,124.6z M40.2,120.7V106c0-2.3-1.9-3.9-3.9-3.9h-9.9l0,0h-6.2l0,0H10.1c-2.3,0-3.9,1.9-3.9,3.9v14.6
		c0,2.3,1.9,3.9,3.9,3.9h26.2C38.3,124.6,40.2,122.9,40.2,120.7z"/>
</g>
</svg>
