<?xml version="1.0" encoding="utf-8"?>
<!-- Generator: Adobe Illustrator 21.0.0, SVG Export Plug-In . SVG Version: 6.00 Build 0)  -->
<svg version="1.1" id="Layer_1" xmlns="http://www.w3.org/2000/svg" xmlns:xlink="http://www.w3.org/1999/xlink" x="0px" y="0px"
	 viewBox="0 0 241.6 72" enable-background="new 0 0 241.6 72" xml:space="preserve">
<g>
	<path d="M25.6,9v29.4h-8.4V29h0c0-4.7-3.9-8.6-8.6-8.6C3.9,20.4,0,24.3,0,29c0,2.4,1,4.6,2.6,6.1h0c0,0,2.1,2.8,2.1,5.4
		c0,2.5-2.1,5.3-2.1,5.3h0C1,47.4,0,49.6,0,52c0,4.7,3.9,8.6,8.6,8.6c4.8,0,8.6-3.8,8.6-8.6h0v-9.4h8.4v23.6c0,3.2,2.6,5.8,5.8,5.8
		h204.5c3.2,0,5.8-2.6,5.8-5.8V9H25.6z M8.6,54.9c-1.6,0-2.9-1.3-2.9-2.9c0-1.2,0.8-2.3,1.8-2.7c0.3-0.1,0.7-0.2,1.1-0.2
		c1.6,0,2.9,1.3,2.9,2.9C11.6,53.6,10.3,54.9,8.6,54.9z M11.6,29c0,1.6-1.3,2.9-2.9,2.9c-0.4,0-0.8-0.1-1.1-0.2
		c-1.1-0.4-1.8-1.5-1.8-2.7c0-1.6,1.3-2.9,2.9-2.9C10.3,26.1,11.6,27.4,11.6,29L11.6,29z"/>
	<rect x="61.6" fill="#FFCB05" width="36" height="9"/>
	<rect x="97.6" fill="#68AE45" width="36" height="9"/>
	<rect x="133.6" fill="#F27DA4" width="36" height="9"/>
	<rect x="169.6" fill="#76CEDB" width="36" height="9"/>
	<g>
		<g>
			<path fill="#FFFFFF" d="M73.1,26.6c-1.2,0-2.2,1-2.2,2.2v23.4c0,1.2,1,2.2,2.2,2.2c1.2,0,2.2-1,2.2-2.2V28.8
				C75.3,27.6,74.3,26.6,73.1,26.6z"/>
		</g>
		<g>
			<path fill="#FFFFFF" d="M62.8,26.6H42.9c-1.2,0-2.1,0.9-2.1,2.1c0,1.2,0.9,2.1,2.1,2.1h7.9v21.5c0,1.2,1,2.2,2.2,2.2
				c1.2,0,2.2-1,2.2-2.2V30.7h7.5c1.2,0,2.1-0.9,2.1-2.1C64.8,27.5,63.9,26.6,62.8,26.6z"/>
		</g>
		<g>
			<path fill="#FFFFFF" d="M139.5,27c-1-0.7-2.4-0.5-3.1,0.5l-8,11.1l-8-11.1c-0.7-1-2.1-1.2-3.1-0.5c-1,0.7-1.2,2.1-0.5,3.1l9.4,13
				c0,0,0,0,0,0v9.1c0,1.2,1,2.2,2.2,2.2c1.2,0,2.2-1,2.2-2.2v-9.1c0,0,0,0,0,0l9.4-13C140.7,29.1,140.5,27.7,139.5,27z"/>
		</g>
		<g>
			<path fill="#FFFFFF" d="M108.8,26.6c-1.2,0-2.2,1-2.2,2.2v17.6L91,27.4c-0.1-0.1-0.1-0.1-0.2-0.2c0,0,0,0,0,0
				c-0.1,0-0.1-0.1-0.2-0.1c-0.4-0.3-0.9-0.5-1.4-0.5c-1.2,0-2.2,1-2.2,2.2v23.4c0,1.2,1,2.2,2.2,2.2c1.2,0,2.2-1,2.2-2.2V34.6
				L107,53.5c0.4,0.6,1.1,1,1.9,1c1.2,0,2.2-1,2.2-2.2V28.8C111.1,27.6,110.1,26.6,108.8,26.6z"/>
		</g>
		<g>
			<path fill="#FFFFFF" d="M184.8,26.1c-7.7,0-12.4,5.5-12.4,14.1c0,9.2,4.7,14.6,12.4,14.6c7.9,0,12.7-5.5,12.7-14.6
				C197.5,31.8,192.5,26.1,184.8,26.1z M184.8,50.8c-5.3,0-8-3.8-8-10.5c0-3.5,1-9.9,8-9.9c7.4,0,8.2,7.1,8.2,9.9
				C193,44.9,191.6,50.8,184.8,50.8z"/>
		</g>
		<g>
			<path fill="#FFFFFF" d="M217.5,26.5h-9.6c-1.2,0-2.2,1-2.2,2.2v23.5c0,1.2,1,2.2,2.2,2.2c1.2,0,2.2-1,2.2-2.2v-9h7.4
				c4.4,0,7.8-3.7,7.8-8.3C225.3,30.2,221.9,26.5,217.5,26.5z M217.5,39h-7.4v-8.3h7.4c2.1,0,3.7,1.8,3.7,4.1
				C221.1,37.2,219.6,39,217.5,39z"/>
		</g>
		<g>
			<path fill="#FFFFFF" d="M162.5,39.6c1.1-1.4,1.8-3.2,1.8-5.2c0-4.4-3.3-7.9-7.4-7.9h-9.1c-0.6,0-1.1,0.3-1.5,0.7
				c-0.4,0.4-0.7,1-0.7,1.6v23.4c0,0.7,0.3,1.2,0.7,1.6c0.4,0.4,0.9,0.6,1.5,0.6h10.4c4.3,0,7.7-3.6,7.7-8.1
				C165.8,43.5,164.5,41.1,162.5,39.6z M160.1,34.4c0,2.1-1.4,3.7-3.3,3.7H150v-7.4h6.8C158.7,30.7,160.1,32.3,160.1,34.4z
				 M158.2,50.3H150v-8h8.1c2,0,3.5,1.6,3.5,4C161.7,48.6,160.2,50.3,158.2,50.3z"/>
		</g>
	</g>
	<path fill="#0390A8" d="M61.6,0H31.4c-3.2,0-5.8,2.6-5.8,5.8V9h36V0z"/>
	<path fill="#F0493F" d="M235.9,0h-30.2v9h36V5.8C241.6,2.6,239.1,0,235.9,0z"/>
</g>
</svg>
